<?xml version="1.0" encoding="utf-8"?>
<!-- Generator: Adobe Illustrator 18.0.0, SVG Export Plug-In . SVG Version: 6.00 Build 0)  -->
<!DOCTYPE svg PUBLIC "-//W3C//DTD SVG 1.1//EN" "http://www.w3.org/Graphics/SVG/1.1/DTD/svg11.dtd">
<svg version="1.1" xmlns="http://www.w3.org/2000/svg" xmlns:xlink="http://www.w3.org/1999/xlink" x="0px" y="0px"
	 viewBox="0 0 260.7 107.5" enable-background="new 0 0 260.7 107.5" xml:space="preserve">
<g id="Layer_2">
</g>
<g id="Layer_6">
	<path fill="#FFD778" d="M20.5,43.1c0,0,103.8-84.4,219.1,0L221.6,63c0,0-85.1-67.2-181.3,0L20.5,43.1z"/>
	<path fill="#FFD778" d="M5.6,57.5l12.6-11.3l20.6,21.2c0,0,87-70.4,182.4,0l20.6-20.8l13.7,10.9l-21.4,7.4l-3.1,19.5
		c0,0-92.7-92.4-201.1,0l-4.2-19.5L5.6,57.5z"/>
</g>
<g id="Layer_4">
	<path id="SVGID_x5F_1_x5F_" fill="none" d="M60.4,46.2c0,0,67.3-42.3,146.7,0"/>
	<text>	<textPath  xlink:href="#SVGID_x5F_1_x5F_" startOffset="11.1816%">
<tspan  fill="#434B5D" font-family="'GistLight'" font-size="19">Its</tspan><tspan  fill="#434B5D" font-family="'GistLight'" font-size="24"> </tspan><tspan  fill="#434B5D" font-family="'GistLight'" font-size="19">as</tspan><tspan  fill="#434B5D" font-family="'GistLight'" font-size="24"> </tspan><tspan  fill="#434B5D" font-family="'GistLight'" font-size="19">easy</tspan>	</textPath>
</text>
	<text transform="matrix(1.2786 0 0 1 63.7891 75.6756)" fill="#434B5D" font-family="'GistLight'" font-size="17.3912">Duck Soup</text>
	<text transform="matrix(1.2786 0 0 1 119.7505 54.8411)" fill="#434B5D" font-family="'GistLight'" font-size="12.7139">as</text>
</g>
<g id="Layer_5">
	<path fill="none" stroke="#FFD778" stroke-miterlimit="10" d="M49.2,81.2H187c0,0,9.8,8.4,22.7,0c13-8.4,1.9,1.9,1.9,1.9
		s-8.4,8.3-25.2,1.9L64.9,84.6"/>
	<polygon fill="#FFD778" points="95.8,99.1 99.3,89.3 102.1,99.1 94,92.8 104,93 	"/>
	<polygon fill="#FFD778" points="124.8,99.1 128.3,89.3 131.1,99.1 123,92.8 133,93 	"/>
	<polygon fill="#FFD778" points="153.8,99.5 157.3,89.7 160.1,99.5 152,93.1 162,93.4 	"/>
</g>
</svg>
