<?xml version="1.0" encoding="utf-8"?>
<!-- Generator: Adobe Illustrator 18.0.0, SVG Export Plug-In . SVG Version: 6.00 Build 0)  -->
<!DOCTYPE svg PUBLIC "-//W3C//DTD SVG 1.1//EN" "http://www.w3.org/Graphics/SVG/1.1/DTD/svg11.dtd">
<svg version="1.1" xmlns="http://www.w3.org/2000/svg" xmlns:xlink="http://www.w3.org/1999/xlink" x="0px" y="0px"
	 viewBox="0 52 400 91" enable-background="new 0 52 400 91" xml:space="preserve">
<g id="Layer_2_2_">
	
		<text transform="matrix(1 0 0 1 116 119)" fill="#434B5D" stroke="#434B5D" stroke-miterlimit="10" font-family="'GistLight'" font-size="48">Duck Soup</text>
</g>
<g id="Layer_1">
	<g id="Layer_2">
		<path fill="none" stroke="#434B5D" stroke-miterlimit="10" d="M175.1,124h185c0,0,13.3,7.1,28.3,0c14.8-7.1,0,2.6,0,2.6
			s-11.1,7.7-29.4,0.7"/>
		<line fill="none" stroke="#434B5D" stroke-miterlimit="10" x1="359" y1="127.2" x2="254.8" y2="127.2"/>
	</g>
	<g id="Layer_1_1_">
		<g>
			<g id="Layer_1_2_" display="none">
				
					<image display="inline" overflow="visible" enable-background="new    " width="103" height="103" xlink:href="F9B269E6818ADE9.png"  transform="matrix(0.5439 0 0 0.5439 39.5831 76.5966)">
				</image>
			</g>
			<g id="Layer_4_1_">
				<g>
					<g>
						<path fill="#F3742D" d="M34.9,80.9c0.2,0,0.3-0.2,0.5-0.2c-0.3,0-0.9-0.2-1.4-0.2c1.2,0.9,2.2,2.7,3.4,3.7
							c-0.2-0.2,1.2,1,1.2,0.9c0.5-0.3,0.3-0.2-0.2,0.5c-0.3,0.5-0.9,1-1.2,1.5c0.3,0,0.9-0.2,1.4-0.2c-2.6-0.7-4.8-1.9-7.3-0.9
							c0.3,1,0.9,2,1.4,3.2c2-1.2,7.7-1.5,6.6-5.3c-0.3-1.7-2.2-2.4-3.6-3.1c-1.7-0.9-5.1-1.7-5.4-3.7c0,0.3-0.2,0.9-0.2,1.4
							c-0.3,0-0.9,0.2-1.2,0.3c0.3,0.3,0.9,0.5,1.2,0.9c0.9,0.5,1.7,0.7,2.7,0.9c1.7,0.3,2.9,0.2,4.3-1c-0.9-0.2-1.9-0.2-2.7-0.3
							c0.5,1,0.7,2.4,1,3.6c0.9,2,4.3,1.2,3.4-0.9c-0.5-1.5-0.7-2.9-1.4-4.4c-0.5-1-2-1-2.7-0.3c-1.5,1.4-4.3-2-6-1.5
							c-2.2,0.5-1.9,2.9-1,4.6c1,2,3.7,2.9,5.8,3.7c0.5,0.2,1,0.5,1.5,0.7c1,0.5,1.4,0,0.5,0.2c-1.5,0.3-2.9,1-4.4,1.7
							c-1.7,0.9-0.5,3.9,1.4,3.2c1.5-0.7,3.4,0,4.8,0.5c0.7,0.3,1.4,0.5,2,0c1.4-0.9,3.4-3.1,3.2-4.9c-0.3-2.6-2.7-3.6-4.3-5.6
							c-1.4-1.7-2.9-3.2-5.1-1.9C31.1,79.1,32.9,82.1,34.9,80.9L34.9,80.9z"/>
					</g>
				</g>
			</g>
			<g id="Layer_2_1_">
				<g>
					<g>
						<path fill="#7AD0E3" d="M85.4,103.2c1.5-0.9,4.8-3.9,4.8-0.2c0,2.7-1,5.4-0.9,8.2c0.2,3.7,0.9,6.3-1,9.9
							c-1.4,2.7-4.1,4.4-6.6,5.6c-2,0.9-0.3,3.9,1.7,3.1c3.7-1.7,6.6-4.3,8.5-7.8c2.6-4.6,0.3-8.9,1-13.6c0.3-2.7,2-7.5-0.5-9.7
							c-3.7-3.2-5.4,0-8.9,1.7C81.7,101.2,83.4,104.3,85.4,103.2L85.4,103.2z"/>
					</g>
				</g>
				<g>
					<g>
						<path fill="#7AD0E3" d="M82.4,129.6C82.6,129.6,82.6,129.6,82.4,129.6c-0.7-0.3-1.5-0.5-2.2-0.7c0,0,0,0.2,0.2,0.2
							c0.2-0.9,0.3-1.7,0.7-2.4c-2,1.4-6.5,1.2-9,1.2c-2.2,0-2.2,3.4,0,3.6c0.7,0,1.4,0,2,0.2c0-1.2,0-2.4,0-3.6
							c-6.3,0.3-12.6,0.5-18.9,0.3c-6.6-0.2-13.4,0-17.5-6.1c-3.4-5.3-3.4-13.1,1.2-17.4c2.9-2.7,9.4-4.4,7.3-9.7
							c-0.9-2-4.3-1.2-3.4,0.9c0.9,2.2-5.1,5.1-6.5,6.1c-2,1.7-3.6,4.1-4.3,6.6c-1.7,5.4,0.3,12.4,3.7,16.9c3.7,5.1,9.4,5.4,15.3,6
							c7.7,0.5,15.3,0.3,23-0.2c2.2-0.2,2.2-3.4,0-3.6c-0.7,0-1.4,0-2-0.2c0,1.2,0,2.4,0,3.6c2.9-0.2,8.2,0,10.7-1.7
							c0.7-0.5,1.2-1.7,0.7-2.4c0,0,0-0.2-0.2-0.2c-0.5-0.9-1.5-1-2.4-0.7c0,0,0,0-0.2,0C78.6,127.6,80.3,130.6,82.4,129.6
							L82.4,129.6z"/>
					</g>
				</g>
				<g>
					<g>
						<path fill="#7AD0E3" d="M85.6,101.7c-1.7-2.9-5.6-0.9-8.3-0.9c-2.7-0.2-16.2,1-14.3-4.6c0.9-2-2.6-3.1-3.4-0.9
							c-1.7,4.4,2.4,7,6.1,8.3c3.1,1.2,6,0.5,9.2,0.7c0.5,0,8.2,0.3,7.7-0.7C83.6,105.6,86.6,103.7,85.6,101.7L85.6,101.7z"/>
					</g>
				</g>
				<g>
					<g>
						<path fill="#7AD0E3" d="M64.2,72.8c2-0.3,2.9,7,3.1,8c0.2,2-0.2,4.3-0.7,6.3c-0.7,2-2.7,3.7-4.3,5.4c-1.4,1.4-2.4,3.2-3.9,4.3
							c-1.9,1.2-0.2,4.3,1.7,3.1c2.7-1.9,4.8-4.9,7-7.3c2-2.2,3.2-4.9,3.4-7.8c0.3-4.6-0.3-16.5-7.3-15.3
							C60.9,69.9,62,73.3,64.2,72.8L64.2,72.8z"/>
					</g>
				</g>
				<g>
					<g>
						<path fill="#7AD0E3" d="M66.6,70.4c-0.2-0.3-0.2-0.5-0.2-0.9c-1,0.3-2,0.9-3.2,1.4c0.5,0.9,0.9,1,1.7,1.4
							c1.7,0.7,2.9-1.9,1.7-2.9c-3.4-3.1-7-5.8-11.6-6.3c-4.4-0.3-9,0.7-12.6,3.6c-3.2,2.6-6.3,6.3-6.3,10.6c0,1.7,1,3.1,2,4.4
							c0.5,0.7,1.2,1.4,2,2c2,2,0.2,4.1-1.4,5.4c-0.5,0.5-0.7,1.5-0.3,2c2.2,3.6,5.1,4.8,8.9,6.5c2,0.9,3.9-2,1.7-3.1
							c-3.1-1.4-5.8-2.2-7.7-5.1c0,0.7-0.2,1.4-0.3,2c2-2,4.4-4.4,3.6-7.7c-1.2-4.1-7-4.6-4.4-9.7c1.9-3.7,5.4-6.3,9.4-7.3
							c5.4-1.7,10.4,1.2,14.3,4.9c0.5-1,1.2-2,1.7-2.9c0.2,0,0.2,0.2,0.3,0.2c-1-1.7-3.7-0.5-3.2,1.4c0.3,0.2,0.3,0.5,0.5,0.7
							C63.7,73.6,67.2,72.6,66.6,70.4L66.6,70.4z"/>
					</g>
				</g>
				<ellipse fill="#7AD0E3" cx="62.6" cy="116.5" rx="29.1" ry="14.8"/>
				<ellipse fill="#7AD0E3" cx="55.1" cy="81.4" rx="13.1" ry="14.3"/>
				<rect x="43.6" y="90.3" fill="#7AD0E3" width="18.6" height="15.3"/>
				<g>
					<g>
						<path fill="#7AD0E3" d="M43.7,79.2c-2-3.2,0.9-6,3.2-7.8c2.7-2,6.1-2.6,9.4-1.7c2.2,0.5,3.1-2.9,0.9-3.4
							c-4.4-1-9.4-0.2-13.1,3.1s-6.3,7.1-3.4,11.9C41.9,83,44.9,81.3,43.7,79.2L43.7,79.2z"/>
					</g>
				</g>
				<g>
					<g>
						<path fill="#7AD0E3" d="M42.9,88.6c-0.3,0.5-0.7,1.2-0.9,1.9c-0.2,0.9,0.3,1.9,1.2,2.2c0.9,0.2,2-0.3,2.2-1.2
							c0-0.2,0.2-0.5,0.2-0.7c-0.2,0.3,0,0,0,0c0-0.2,0.2-0.2,0.2-0.3c0.5-0.9,0.2-1.9-0.7-2.4C44.4,87.6,43.4,87.9,42.9,88.6
							L42.9,88.6z"/>
					</g>
				</g>
				<g>
					<g>
						<path fill="#7AD0E3" d="M42.4,100.7c-4.1,1.9-7.7,5.4-8.3,10c-0.3,1.7,1.5,3.1,2.9,1.7c1.4-1.4,3.4-1.9,4.8-3.1
							c0.9-0.7,1.5-1.5,2.4-2.2c1.4-0.9,3.2-0.9,4.8-0.9c2.2,0,2.2-3.6,0-3.6c-2.6,0-5.4,0.3-7.7,2c-1.2,1-2,2.2-3.6,2.9
							c-1.2,0.7-2.4,1.2-3.4,2.2c1,0.5,2,1.2,2.9,1.7c0.5-3.7,3.4-6.3,6.6-8C46.3,102.9,44.4,99.8,42.4,100.7L42.4,100.7z"/>
					</g>
				</g>
				<g>
					<g>
						<path fill="#7AD0E3" d="M80.7,106.5c2.9-0.7,6-1.4,9-2c-0.5-0.2-1.2-0.3-1.7-0.3c0.3,0.3-0.3,2.6-0.5,3.1
							c-0.2,1.2,0,2.4,0.2,3.6c1-0.3,2-0.9,3.2-1.4c-0.9-1.5-1.7-3.6-2.9-4.8c-0.5-0.5-1.2-0.9-2-0.7c-0.9,0-1.4,0.9-2.2,0.9
							c-2.2-0.2-2.2,3.4,0,3.6c0.5,0,1,0,1.5-0.2c0.3-0.2,0.5-0.3,0.9-0.3c0.7-0.3,0.3-0.5-0.7-0.7c0.9,1.2,1.5,2.7,2.4,4.1
							c1,1.9,3.6,0.5,3.2-1.4c-0.3-2.7,1.9-6.1-0.5-8.3c-1.2-1-3.4,0-4.8,0.2c-2,0.5-3.9,0.9-6,1.4
							C77.4,103.6,78.5,107.1,80.7,106.5L80.7,106.5z"/>
					</g>
				</g>
			</g>
			<g id="Layer_3_1_">
				<g>
					<path fill="#418892" d="M56.2,110.2c3.1-0.2,6,1.5,8.9,2.2c2,0.5,4.3,0.5,6.5,0.5c1.7,0,3.4,0,4.9-1c0.3-0.2,0.5-0.3,0.9-0.3
						c0.7,0,0.5,1,0.3,1.7c-0.9,2.2-1.9,4.4-3.2,6.3c-1.4,1.9-3.4,3.6-5.6,4.1c-0.9,0.2-1.5,0.3-2.2,0.3c-3.6,0.2-7.1-0.3-10.4-1.7
						c-1.7-0.7-3.2-1.5-4.3-2.7c-1.7-2-2-5.1-0.7-7.5c0.7-1,1.5-2,2.7-2.4c0.5-0.2,1-0.2,1.5-0.2c1.7,0,3.6,0.5,5.3,1
						c3.1,0.9,6.3,1.9,9.4,2.7"/>
					<g>
						<path fill="#418892" d="M56.2,111.9c3.9,0,7.5,2.2,11.4,2.7c2,0.3,3.9,0.2,6,0c1.7-0.2,2.6-1,4.1-1.4
							c-0.5-0.2-1.2-0.3-1.7-0.3c0,0-1.9,3.6-2,3.7c-1,2-2.6,3.6-4.4,4.8c-3.6,2.2-9.5,0.5-13.1-0.9c-5.6-2-6.1-10.4,1-9
							c4.1,0.7,8,2.4,12.1,3.4c2.2,0.7,3.1-2.7,0.9-3.4c-6.6-2-19.1-8.2-22,1.9c-2.6,9.2,10,12.3,16.5,12.3c3.9,0,7.1-1.4,9.9-4.3
							c2-2,5.3-7.1,4.4-10.2c-0.2-0.9-1.2-1.7-2-1.7c-0.3,0-1,0.2-1.4,0.3c-1.4,1-2.7,1-4.4,1.2c-2.9,0-5.4-0.3-8.2-1.2
							c-2.4-0.9-4.6-1.7-7.1-1.7C54,108.3,54,111.9,56.2,111.9L56.2,111.9z"/>
					</g>
				</g>
				
					<ellipse transform="matrix(-0.6671 0.745 -0.745 -0.6671 129.0716 93.8065)" fill="#010101" cx="43.6" cy="75.7" rx="3.1" ry="1.9"/>
				
					<ellipse transform="matrix(-0.6671 0.745 -0.745 -0.6671 128.748 95.1199)" fill="#FFFFFF" cx="43.1" cy="76.3" rx="1.4" ry="0.9"/>
			</g>
		</g>
		<polyline fill="#434B5D" stroke="#434B5D" stroke-miterlimit="10" points="17,117.7 106.6,117.7 92.1,135.4 32.7,135.4 		"/>
		<g>
			<g>
				<path fill="#434B5D" d="M83.2,75.3c2.7,0.9-0.7,2.2-1.5,2.7c-1,0.5-2,1.9-2,3.2c0,1.2,0.5,2,1.2,2.9c1.2,1.5-1.7,3.2-2.2,4.4
					c-1.4,2.4,2.4,4.6,3.7,2.2c1-1.9,3.7-2.2,3.6-4.9c0-0.9-0.2-1.9-0.7-2.7c-0.2-0.5-0.5-0.9-0.9-1.4c-0.2-0.2,1.9-1,2-1
					c4.8-2,2-8.2-1.9-9.4C81.9,70.4,80.7,74.5,83.2,75.3L83.2,75.3z"/>
			</g>
		</g>
		<g>
			<g>
				<path fill="#434B5D" d="M102.5,80.3c2.7,1.5-1.2,2.6-2.2,2.9c-1.4,0.3-2.2,1.2-2.9,2.4c-0.7,1.2-0.3,2.4,0.2,3.6
					c1,2.4-2.4,3.2-3.6,4.4c-1.7,2,1.2,5.1,3.1,3.1c1.5-1.7,4.3-1.9,4.9-4.4c0.2-1,0.3-2,0.2-3.1c-0.5-2-0.2-2,1.9-2.6
					c4.8-1.2,4.6-7.7,0.7-10C102.1,75.1,100.1,78.9,102.5,80.3L102.5,80.3z"/>
			</g>
		</g>
		<text transform="matrix(1 0 0 1 243.6837 119.916)" font-family="'ClearLine-PERSONALUSEONLY'" font-size="72.5922"> </text>
		<line fill="none" stroke="#434B5D" stroke-miterlimit="10" x1="254.8" y1="127.2" x2="186.9" y2="127.2"/>
	</g>
</g>
</svg>
