<?xml version="1.0" encoding="utf-8"?>
<!-- Generator: Adobe Illustrator 18.0.0, SVG Export Plug-In . SVG Version: 6.00 Build 0)  -->
<!DOCTYPE svg PUBLIC "-//W3C//DTD SVG 1.1//EN" "http://www.w3.org/Graphics/SVG/1.1/DTD/svg11.dtd">
<svg version="1.1" xmlns="http://www.w3.org/2000/svg" xmlns:xlink="http://www.w3.org/1999/xlink" x="0px" y="0px"
	 viewBox="0 0 235 50" enable-background="new 0 0 235 50" xml:space="preserve">
<g id="Layer_2_2_">
	<rect x="75.5" y="-2" fill="#848484" stroke="#000000" stroke-miterlimit="10" width="82.8" height="54.2"/>
</g>
<g id="Layer_1">
	<g id="Layer_1_1_">
		<g>
			<g id="Layer_1_2_" display="none">
				
					<image display="inline" overflow="visible" enable-background="new    " width="101" height="102" xlink:href="53AA2315DF9BB85C.png"  transform="matrix(0.3053 0 0 0.3024 105.2248 12.9367)">
				</image>
			</g>
			<g id="Layer_4_1_">
				<g>
					<g>
						<path fill="#F3742D" d="M102.6,15.3c0.1,0,0.2-0.1,0.3-0.1c-0.2,0-0.5-0.1-0.7-0.1c0.7,0.5,1.2,1.5,1.8,2.1
							c-0.1-0.1,0.7,0.5,0.7,0.4c0.3-0.2,0.2-0.1-0.1,0.3c-0.2,0.3-0.4,0.6-0.7,0.8c0.2,0,0.5-0.1,0.7-0.1c-1.4-0.4-2.7-1-4.1-0.5
							c0.2,0.6,0.5,1.2,0.7,1.8c1.2-0.6,4.2-0.9,3.6-2.9c-0.2-0.9-1.2-1.3-2-1.7c-0.9-0.5-2.8-0.9-3-2.1c0,0.2-0.1,0.5-0.1,0.7
							c-0.2,0-0.5,0.1-0.7,0.2c0.2,0.2,0.4,0.3,0.7,0.4c0.4,0.3,1,0.4,1.5,0.4c0.9,0.2,1.6,0.1,2.4-0.5c-0.5-0.1-1-0.1-1.5-0.2
							c0.3,0.6,0.4,1.3,0.5,2c0.4,1.2,2.3,0.7,1.9-0.5c-0.3-0.8-0.4-1.6-0.7-2.4c-0.3-0.6-1.1-0.6-1.5-0.2c-0.9,0.7-2.3-1.1-3.3-0.8
							c-1.2,0.3-1,1.6-0.6,2.5c0.6,1.1,2.1,1.6,3.2,2.1c0.3,0.1,0.5,0.3,0.8,0.4c0.6,0.3,0.7,0,0.3,0.1c-0.9,0.2-1.6,0.5-2.4,1
							c-1,0.5-0.3,2.2,0.7,1.8c0.9-0.4,1.8,0,2.7,0.3c0.4,0.2,0.8,0.3,1.2,0c0.7-0.5,1.9-1.7,1.8-2.7c-0.2-1.4-1.5-2-2.3-3.1
							c-0.7-1-1.6-1.8-2.8-1C100.6,14.3,101.6,16,102.6,15.3L102.6,15.3z"/>
					</g>
				</g>
			</g>
			<g id="Layer_2_1_">
				<g>
					<g>
						<path fill="#7AD0E3" d="M130.5,27.6c0.9-0.4,2.7-2.2,2.7-0.1c0,1.5-0.6,3-0.5,4.5c0.1,2.1,0.4,3.5-0.6,5.4
							c-0.8,1.4-2.3,2.3-3.7,3c-1.1,0.5-0.2,2.2,1,1.7c2-0.9,3.6-2.3,4.7-4.3c1.4-2.5,0.2-4.9,0.6-7.5c0.2-1.5,1.1-4.1-0.3-5.3
							c-2-1.8-3,0-4.8,0.9C128.4,26.5,129.4,28.2,130.5,27.6L130.5,27.6z"/>
					</g>
				</g>
				<g>
					<g>
						<path fill="#7AD0E3" d="M128.8,42.2C128.8,42.2,128.8,42.1,128.8,42.2c-0.4-0.2-0.8-0.3-1.3-0.4c0,0,0,0.1,0.1,0.1
							c0.1-0.4,0.2-0.9,0.4-1.3c-1.2,0.8-3.6,0.6-5,0.7c-1.2,0-1.2,1.9,0,2c0.4,0,0.7,0,1.1,0.1c0-0.7,0-1.3,0-2
							c-3.5,0.2-6.9,0.3-10.4,0.2c-3.7-0.1-7.4,0-9.6-3.4c-1.9-2.9-1.9-7.2,0.7-9.6c1.6-1.5,5.2-2.5,4.1-5.3
							c-0.5-1.2-2.3-0.7-1.9,0.5c0.5,1.2-2.8,2.8-3.6,3.4c-1.2,0.9-2,2.2-2.4,3.7c-0.9,3,0.2,6.9,2.1,9.3c2.1,2.8,5.2,3,8.4,3.2
							c4.2,0.3,8.4,0.2,12.6-0.1c1.2-0.1,1.2-1.9,0-2c-0.4,0-0.7,0-1.1-0.1c0,0.7,0,1.3,0,2c1.6-0.1,4.5,0,5.9-0.9
							c0.4-0.3,0.7-0.9,0.4-1.3c0,0,0-0.1-0.1-0.1c-0.3-0.5-0.8-0.6-1.3-0.4c0,0,0,0-0.1,0C126.7,41,127.7,42.7,128.8,42.2
							L128.8,42.2z"/>
					</g>
				</g>
				<g>
					<g>
						<path fill="#7AD0E3" d="M130.6,26.8c-0.9-1.6-3.1-0.4-4.6-0.5c-1.5-0.1-8.9,0.5-7.8-2.6c0.4-1.2-1.4-1.7-1.9-0.5
							c-0.9,2.5,1.3,3.9,3.4,4.6c1.7,0.6,3.3,0.3,5,0.4c0.3,0,4.5,0.2,4.2-0.4C129.5,28.9,131.1,27.9,130.6,26.8L130.6,26.8z"/>
					</g>
				</g>
				<g>
					<g>
						<path fill="#7AD0E3" d="M118.8,10.8c1.1-0.2,1.6,3.9,1.7,4.4c0.1,1.2-0.1,2.3-0.4,3.4c-0.4,1.2-1.5,2.1-2.3,3
							c-0.7,0.8-1.3,1.8-2.2,2.4c-1.1,0.7-0.1,2.4,1,1.7c1.5-1,2.6-2.7,3.9-4.1c1.1-1.2,1.8-2.7,1.9-4.3c0.2-2.5-0.2-9.1-4.1-8.4
							C117,9.2,117.6,11.1,118.8,10.8L118.8,10.8z"/>
					</g>
				</g>
				<g>
					<g>
						<path fill="#7AD0E3" d="M120.1,9.5c0-0.2-0.1-0.3-0.1-0.5c-0.6,0.2-1.2,0.5-1.8,0.7c0.3,0.4,0.5,0.6,1,0.8
							c0.9,0.4,1.6-1,0.9-1.6c-1.8-1.7-3.8-3.2-6.4-3.4c-2.5-0.2-5,0.4-6.9,2c-1.8,1.4-3.4,3.4-3.4,5.8c0,0.9,0.6,1.7,1.1,2.4
							c0.3,0.4,0.7,0.7,1.1,1.1c1.1,1.1,0.1,2.2-0.7,3c-0.3,0.3-0.4,0.8-0.2,1.2c1.2,2,2.8,2.6,4.9,3.6c1.1,0.5,2.1-1.2,1-1.7
							c-1.7-0.7-3.2-1.2-4.2-2.8c0,0.4-0.1,0.8-0.2,1.2c1.2-1.1,2.5-2.4,2-4.2c-0.6-2.2-3.9-2.5-2.5-5.4c1-2,3-3.4,5.2-4.1
							c3-0.9,5.7,0.7,7.8,2.7c0.3-0.5,0.6-1.1,0.9-1.6c0.1,0,0.1,0.1,0.2,0.1c-0.6-0.9-2.1-0.3-1.8,0.7c0,0.2,0.1,0.3,0.1,0.5
							C118.5,11.3,120.4,10.8,120.1,9.5L120.1,9.5z"/>
					</g>
				</g>
				<ellipse fill="#7AD0E3" cx="117.9" cy="34.9" rx="16" ry="8.1"/>
				<ellipse fill="#7AD0E3" cx="113.8" cy="15.6" rx="7.2" ry="7.9"/>
				<rect x="107.4" y="20.5" fill="#7AD0E3" width="10.2" height="8.4"/>
				<g>
					<g>
						<path fill="#7AD0E3" d="M107.5,14.4c-1.1-1.8,0.5-3.3,1.8-4.3c1.5-1.1,3.4-1.4,5.2-0.9c1.2,0.3,1.7-1.6,0.5-1.9
							c-2.5-0.7-5.2-0.2-7.3,1.6c-2.1,1.8-3.4,3.9-1.9,6.5C106.5,16.5,108.2,15.5,107.5,14.4L107.5,14.4z"/>
					</g>
				</g>
				<g>
					<g>
						<path fill="#7AD0E3" d="M107,19.6c-0.2,0.3-0.4,0.7-0.4,1c-0.1,0.5,0.2,1.1,0.7,1.2c0.5,0.1,1.1-0.2,1.2-0.7
							c0-0.1,0.1-0.3,0.1-0.4c-0.1,0.2,0,0,0,0c0-0.1,0.1-0.1,0.1-0.2c0.3-0.5,0.1-1.1-0.4-1.3C107.9,19,107.3,19.1,107,19.6
							L107,19.6z"/>
					</g>
				</g>
				<g>
					<g>
						<path fill="#7AD0E3" d="M106.8,26.2c-2.2,1.1-4.2,3-4.6,5.5c-0.2,0.9,0.9,1.7,1.6,0.9c0.8-0.7,1.8-1,2.7-1.7
							c0.5-0.4,0.8-0.9,1.3-1.2c0.7-0.5,1.8-0.5,2.7-0.5c1.2,0,1.2-2,0-2c-1.4,0-3,0.2-4.2,1.1c-0.7,0.5-1.2,1.2-2,1.6
							c-0.7,0.4-1.3,0.7-1.9,1.2c0.5,0.3,1.1,0.6,1.6,0.9c0.3-2.1,1.9-3.5,3.7-4.4C108.9,27.4,107.9,25.7,106.8,26.2L106.8,26.2z"/>
					</g>
				</g>
				<g>
					<g>
						<path fill="#7AD0E3" d="M127.8,29.4c1.6-0.4,3.3-0.8,5-1.1c-0.3-0.1-0.6-0.2-0.9-0.2c0.2,0.2-0.2,1.4-0.3,1.7
							c-0.1,0.7,0,1.3,0.1,2c0.6-0.2,1.2-0.5,1.8-0.7c-0.5-0.8-0.9-2-1.6-2.6c-0.3-0.3-0.7-0.4-1.1-0.4c-0.5,0-0.8,0.5-1.2,0.4
							c-1.2-0.1-1.2,1.8,0,2c0.3,0,0.5,0,0.8-0.1c0.2-0.1,0.3-0.2,0.5-0.2c0.4-0.2,0.2-0.3-0.4-0.4c0.5,0.7,0.9,1.5,1.3,2.2
							c0.6,1,2,0.3,1.8-0.7c-0.2-1.5,1.1-3.4-0.3-4.6c-0.7-0.6-1.8,0-2.6,0.1c-1.1,0.3-2.2,0.5-3.3,0.8
							C126.1,27.8,126.6,29.7,127.8,29.4L127.8,29.4z"/>
					</g>
				</g>
			</g>
			<g id="Layer_3_1_">
				<g>
					<path fill="#418892" d="M114.4,31.4c1.7-0.1,3.2,0.9,4.8,1.2c1.2,0.3,2.4,0.3,3.6,0.3c0.9,0,1.9,0,2.7-0.6
						c0.2-0.1,0.3-0.2,0.5-0.2c0.4,0,0.3,0.6,0.2,0.9c-0.5,1.2-1.1,2.4-1.8,3.5c-0.7,1.1-1.8,2-3.1,2.3c-0.4,0.1-0.8,0.2-1.2,0.2
						c-2,0.1-3.9-0.2-5.7-0.9c-0.9-0.4-1.8-0.8-2.4-1.5c-0.9-1.1-1.1-2.8-0.4-4.1c0.4-0.6,0.9-1.1,1.5-1.3c0.3-0.1,0.6-0.1,0.9-0.1
						c1,0,2,0.3,2.9,0.5c1.7,0.5,3.4,1,5.2,1.5"/>
					<g>
						<path fill="#418892" d="M114.4,32.4c2.1,0,4.1,1.2,6.3,1.5c1.1,0.2,2.2,0.1,3.3,0c0.9-0.1,1.4-0.6,2.3-0.8
							c-0.3-0.1-0.6-0.2-0.9-0.2c0,0-1,2-1.1,2.1c-0.6,1.1-1.4,2-2.4,2.6c-2,1.2-5.3,0.3-7.3-0.4c-3.1-1.1-3.4-5.7,0.6-5
							c2.2,0.4,4.4,1.3,6.6,1.9c1.2,0.4,1.7-1.5,0.5-1.9c-3.7-1.1-10.5-4.5-12.1,1c-1.4,5.1,5.5,6.7,9.1,6.8c2.2,0,3.9-0.7,5.4-2.3
							c1.1-1.2,2.9-3.9,2.5-5.6c-0.1-0.5-0.7-0.9-1.2-0.9c-0.2,0-0.5,0.1-0.7,0.2c-0.8,0.5-1.5,0.6-2.4,0.6c-1.6,0-3-0.2-4.5-0.7
							c-1.3-0.4-2.5-0.9-3.9-0.9C113.1,30.4,113.1,32.3,114.4,32.4L114.4,32.4z"/>
					</g>
				</g>
				
					<ellipse transform="matrix(-0.6671 0.745 -0.745 -0.6671 188.4026 -59.2077)" fill="#010101" cx="107.4" cy="12.5" rx="1.7" ry="1.1"/>
				
					<ellipse transform="matrix(-0.6671 0.745 -0.745 -0.6671 188.1517 -58.544)" fill="#FFFFFF" cx="107.2" cy="12.8" rx="0.8" ry="0.5"/>
			</g>
		</g>
	</g>
	<g id="Layer_2">
		<polyline fill="#434B5D" stroke="#434B5D" stroke-miterlimit="10" points="92.8,35.6 142.1,35.6 134.1,45.3 101.4,45.3 		"/>
		<g>
			<g>
				<path fill="#434B5D" d="M129.4,11.9c0.7,0.3,0.9,0.8,0.5,1.5c-0.4,0.2-0.8,0.4-1.2,0.5c-0.6,0.3-0.9,0.8-1,1.4
					c-0.1,0.5,0.2,1.1,0.5,1.5c1,1.2-0.8,2-1.2,2.8c-0.5,0.9,0.9,1.8,1.4,0.8c0.5-1,2-1.2,1.9-2.5c0-0.7-0.2-1.2-0.6-1.8
					c-0.5-0.9,0.4-1,1-1.2c2.3-1,0.9-3.9-0.9-4.5C128.8,10,128.4,11.6,129.4,11.9L129.4,11.9z"/>
			</g>
		</g>
		<g>
			<g>
				<path fill="#434B5D" d="M140,14.6c1,0.6,0.5,1.7-0.4,1.9c-0.4,0.1-0.8,0.2-1.1,0.3c-0.6,0.3-1.1,0.7-1.3,1.3
					c-0.2,0.8,0.3,1.5,0.4,2.3c0.1,0.9-1.8,1.4-2.2,2c-0.7,0.8,0.5,2,1.2,1.2c0.7-0.9,2.1-0.9,2.5-2.2c0.2-0.5,0.3-1.2,0.1-1.7
					c-0.3-1.1,0.2-1.5,1.3-1.7c2.4-0.6,2.2-3.8,0.3-4.9C139.9,12.7,139.1,14.1,140,14.6L140,14.6z"/>
			</g>
		</g>
	</g>
</g>
<g id="Layer_3">
</g>
</svg>
